PathFileType	4	(X/Y/Z)	regression/subject18/trials/walk2/markers.trc
DataRate	CameraRate	NumFrames	NumMarkers	Units	OrigDataRate	OrigDataStartFrame	OrigNumFrames
200.00000000000426	200.00000000000426	4	64	m	200.00000000000426	0	215
Frame#	Time	CLAV			C7			RACR			RASH			RPSH			RLEL			RMEL			RUA1			RUA2			RUA3			RFAsuperior			RFAradius			RFAulna			RASI			RPSI			RCAL			RTOE			RMT5			RTH1			RTH2			RTH3			RTB1			RTB2			RTB3			RLFC			RMFC			RLMAL			RMMAL			RHJC			RKJC			REJC			RAJC			RSJC			LACR			LASH			LPSH			LLEL			LMEL			LUA1			LUA2			LUA3			LFAsuperior			LFAradius			LFAulna			LASI			LPSI			LCAL			LTOE			LMT5			LTH1			LTH2			LTH3			LTB1			LTB2			LTB3			LLFC			LMFC			LLMAL			LMMAL			LHJC			LKJC			LEJC			LAJC			LSJC			
		X1	Y1	Z1	X2	Y2	Z2	X3	Y3	Z3	X4	Y4	Z4	X5	Y5	Z5	X6	Y6	Z6	X7	Y7	Z7	X8	Y8	Z8	X9	Y9	Z9	X10	Y10	Z10	X11	Y11	Z11	X12	Y12	Z12	X13	Y13	Z13	X14	Y14	Z14	X15	Y15	Z15	X16	Y16	Z16	X17	Y17	Z17	X18	Y18	Z18	X19	Y19	Z19	X20	Y20	Z20	X21	Y21	Z21	X22	Y22	Z22	X23	Y23	Z23	X24	Y24	Z24	X25	Y25	Z25	X26	Y26	Z26	X27	Y27	Z27	X28	Y28	Z28	X29	Y29	Z29	X30	Y30	Z30	X31	Y31	Z31	X32	Y32	Z32	X33	Y33	Z33	X34	Y34	Z34	X35	Y35	Z35	X36	Y36	Z36	X37	Y37	Z37	X38	Y38	Z38	X39	Y39	Z39	X40	Y40	Z40	X41	Y41	Z41	X42	Y42	Z42	X43	Y43	Z43	X44	Y44	Z44	X45	Y45	Z45	X46	Y46	Z46	X47	Y47	Z47	X48	Y48	Z48	X49	Y49	Z49	X50	Y50	Z50	X51	Y51	Z51	X52	Y52	Z52	X53	Y53	Z53	X54	Y54	Z54	X55	Y55	Z55	X56	Y56	Z56	X57	Y57	Z57	X58	Y58	Z58	X59	Y59	Z59	X60	Y60	Z60	X61	Y61	Z61	X62	Y62	Z62	X63	Y63	Z63	X64	Y64	Z64	

1	2.44	0.7880063863038964	1.424890992520359	-0.4937192748007136	0.6803756587737541	1.50367195232263	-0.5090781858593292	0.7398965027175637	1.476686750849411	-0.3759336995567807	0.7738610670208946	1.416221280518073	-0.3323891646571436	0.6782433581870608	1.439327392848585	-0.3456380040760504	0.5906331111522942	1.174101640877696	-0.2747273643179585	0.591412135777561	1.15877017948223	-0.3556977923059195	0.7002200742962775	1.385273016674427	-0.3159986693637374	0.6232554273293086	1.249333855327568	-0.3031365563909431	0.6824112430561349	1.300228010591516	-0.302659165059782	0.6038601340458647	1.084505143604819	-0.2985005122572519	0.6069935763332173	0.9328867961978836	-0.2658029209724188	0.5476058747216049	0.9313156925965463	-0.2887309612454984	0.783595137536611	1.012676708172054	-0.3882394818928007	0.6186475756915425	1.047671803028673	-0.4522837030462877	0.9336209194208158	0.04412650646779665	-0.3998499127789004	1.175492344643213	0.1088402215257828	-0.4547955797690985	1.129610075087901	0.06532778522906323	-0.3566810621935922	0.7897035885207424	0.7856932415453224	-0.3585204111326996	0.8828217044760625	0.7302792160490902	-0.4296132399103324	0.8430183283155185	0.633819330875939	-0.3589926199608504	0.9276070691235137	0.3557672782216477	-0.3740733148694331	0.9881877339312435	0.2860601521046313	-0.4266890970839579	0.9893606200962295	0.2105629946781103	-0.3660926744896565	0.874684067882828	0.5261370872823776	-0.3669375216850458	0.8660812257959727	0.5201418665598659	-0.4787711117969929	1.004003545896876	0.104010040951334	-0.3635938349709309	1.00680107598948	0.1026402538758897	-0.4502374939895251	0.7032304623961142	0.9221071647634531	-0.43138409300566	0.8710502430939662	0.522600684474068	-0.4248140229894701	0.5938970397124356	1.160412598814491	-0.3199934384288588	0.9975144902757718	0.08736588391667061	-0.412298211472284	0.7290689513176852	1.427045338839301	-0.3385955834829305	0.7733437087675591	1.47461828615958	-0.6209317166839682	0.8175997210862733	1.413516365154447	-0.6527711870542351	0.7143325955457328	1.438470966471399	-0.6670799336266543	0.7878627277823212	1.154627521203982	-0.7783611861489093	0.7619046318988268	1.126131606107864	-0.7055186859865078	0.7752720292351819	1.379826814678098	-0.6921479296506134	0.7725632921692128	1.23003245834418	-0.7382213490437656	0.8005808878150336	1.298071577148333	-0.7122300789054713	0.8422326121668087	1.088840692948189	-0.7377321640362834	0.9572036835334128	0.9847027693413051	-0.7397371135294454	0.9115077669580905	0.9411087972655819	-0.7478925599919189	0.7434519015823767	1.014430602263169	-0.6561483817388283	0.6045856936238773	1.048286179306075	-0.5461302319810184	0.2903965848674905	0.09041425111151923	-0.6015348628972015	0.5340840435011127	0.03975340023216655	-0.5402276180595463	0.4728117331579016	0.01099302491254795	-0.6353250319453961	0.6651589070252983	0.7607024210892581	-0.6618504541663749	0.7096390475491536	0.6621712272160856	-0.5903731222542455	0.61794095741513	0.6069058509520644	-0.6568057092550024	0.5022968477883615	0.3403999252458464	-0.6332725226487109	0.4978930219428194	0.249550918789955	-0.5782762931235337	0.4459666101850582	0.1928407927178309	-0.6371042816622836	0.5797925309914668	0.5016504857252229	-0.6455224577973151	0.5732056380090944	0.5040685577303197	-0.5334177335015615	0.3825646713220562	0.1059249361508965	-0.6369648238108058	0.3841840002036099	0.1052232179689845	-0.5502831561702485	0.6790877733172739	0.9231619805677217	-0.5925081557944887	0.5776503595054927	0.5010198651287089	-0.5871231710089944	0.7777441454360016	1.135043600287062	-0.7363951891931835	0.366655654841896	0.09969744988191503	-0.5879814214581975	0.7728076053830639	1.424340423475675	-0.6589776058800219	
2	2.445	0.7945379495924794	1.424263105037371	-0.4929750222173241	0.6867842261086443	1.50290064283925	-0.5082059778264912	0.7464026854258906	1.475866029596389	-0.3751151998193361	0.7804754933988161	1.415405921829467	-0.3316478514301935	0.684817990732515	1.438384287535121	-0.3448314514223751	0.5970282541812724	1.173284190000725	-0.2741623459993672	0.5977683569302089	1.158032304612751	-0.3551481659709779	0.7067865269088678	1.384400636488356	-0.31525906919571	0.6297072817022062	1.248516020508249	-0.3025073038719346	0.6889076579046177	1.29935802818781	-0.3019981973757138	0.6101105529544935	1.083692316958125	-0.2980369966180539	0.613016242992302	0.9320371565742525	-0.2654894390882734	0.5536099697797388	0.9305865770462298	-0.288377274766362	0.7908302573180878	1.011951815975443	-0.3879551053027999	0.6257574813382889	1.047093401704575	-0.4515952236918985	0.9375702790569961	0.0430145626720493	-0.3996652342788827	1.179757415101226	0.1059657906246219	-0.4552638998264881	1.13380643353954	0.06288831911888827	-0.3569897319425164	0.7966111107567525	0.7848703069698477	-0.3580112036002034	0.8894873507433448	0.72933082534756	-0.4293221990458693	0.8496979760290002	0.6329171226908472	-0.3586306595003981	0.9333142126834412	0.354556357811742	-0.3739311658464883	0.9933814122422926	0.2845286507050886	-0.4267096907655151	0.9943521958138527	0.2090418836174942	-0.3660967511685237	0.8811851651471625	0.5251892590697084	-0.3666662324206853	0.872323525535168	0.5192279478368708	-0.4784814261672526	1.008460486183439	0.1024164670235779	-0.3636131848083641	1.010990966548342	0.1010104817854547	-0.4502644745507245	0.7101790466754735	0.921426802792912	-0.4306562163181251	0.8774545282656265	0.5216623911587046	-0.4245468625089898	0.6002659538997959	1.159637170338861	-0.3194429900158648	1.001740727607161	0.08579317202069447	-0.4122933964405818	0.7356647362747875	1.426170137244281	-0.337823708846531	0.7797465603099349	1.474099979717635	-0.6201296679850357	0.8240790220933356	1.413096471988019	-0.6520513867238005	0.7207689192137304	1.437913106950125	-0.6662896747153568	0.7951275850421445	1.154347846655584	-0.7779580097739964	0.7692254489051145	1.125683325725083	-0.7051617575879465	0.7818700030299592	1.379397652401873	-0.6914548623171861	0.7796010566211274	1.229656613534329	-0.7377249345196913	0.8074170575628443	1.297740716797296	-0.7116351194320342	0.8498698857754603	1.088937634499381	-0.7372211944499819	0.9655787134471441	0.9856152985094426	-0.7389636901415436	0.9202056742389531	0.9416924366166672	-0.7471571031153986	0.7499034420739011	1.013164687269606	-0.6557484190566369	0.6114211171740997	1.047518261651621	-0.5454012636635845	0.2912899969433057	0.09257435931463125	-0.6015415226748057	0.5344602919782724	0.03934566779662337	-0.5403566259387201	0.4727875270285372	0.01108322550023882	-0.6353444027839278	0.6706564026801234	0.7599241082309757	-0.6613810029281177	0.7149609201571191	0.6610279055623574	-0.5902997897052873	0.6227726509791067	0.6063275632947392	-0.6565212797611011	0.5053535301848773	0.3405852203863935	-0.6331841075984922	0.5002692795007242	0.2496712472847327	-0.5783541813908305	0.4476682171138874	0.1935541340160839	-0.6371514662502338	0.5841975965538925	0.5012165750153378	-0.6453431121959695	0.5780358383862924	0.5033996890723255	-0.5332093965253104	0.3834759631215492	0.1072203294553099	-0.6370095497630494	0.385323425943231	0.1063318892775404	-0.5503341570927273	0.6855651023349123	0.9221562401153293	-0.5917107640561797	0.5822950414112407	0.5004190003165323	-0.5869256368467285	0.7850501882072712	1.134680494059011	-0.7360211300314362	0.3676433886560997	0.1010411005696817	-0.5879952782412887	0.7792682649693068	1.423860687402833	-0.658227244140138	
3	2.45	0.8010896205512544	1.423695604138831	-0.4922207579068751	0.6931980077353351	1.502174156074185	-0.5072947771138048	0.7529397894203704	1.475079970262844	-0.374271430247846	0.7871375525293594	1.414624475861419	-0.3308958905353374	0.6914346675801133	1.4374613995921	-0.34399562879686	0.6036149115245029	1.172423831450915	-0.2735395207479415	0.6042872313266185	1.157259386205326	-0.354542350222709	0.7134275505186922	1.383540210245124	-0.3144911017813831	0.6363028953668967	1.247673083917638	-0.3018278489690144	0.6955242665927175	1.298490533543877	-0.3013087339160507	0.6165145940433781	1.082837240152932	-0.2975279998061631	0.6191426440510827	0.9311427488272674	-0.2651405197959316	0.5597074922221161	0.9298390671847784	-0.2879621244994298	0.7979959337923788	1.0112762962903	-0.3875509692564933	0.6328740015286567	1.046578197518307	-0.4509744691677723	0.9400357916053474	0.04201337867947449	-0.3994609325308446	1.182796772511471	0.101921773618806	-0.455912397897186	1.136634737749053	0.05954385106290948	-0.3574332043711601	0.8036207551423199	0.7841813366201764	-0.3574680266301947	0.8963693848300701	0.7286740973321839	-0.428969957527489	0.8566806235666207	0.632219616634269	-0.3582774858907374	0.9388941912481229	0.3533923395883636	-0.3738497039195063	0.9981200880169878	0.2827876754530662	-0.4268100237103842	0.9986087798370048	0.207321834630419	-0.3661652306783028	0.8881361100178103	0.5244918511607075	-0.3664375734691426	0.879088418514153	0.5186072350406776	-0.4782419294325151	1.011737180153044	0.1005713358369493	-0.3636817783773021	1.013943575497307	0.09910382369330317	-0.450340905808142	0.7170918611567914	0.9208012866598434	-0.429878080368691	0.884404224146396	0.5209866509813618	-0.4243439585115277	0.6068126342465916	1.158824561079813	-0.3188373681850299	1.00468902501408	0.08398961698900104	-0.4123297198118434	0.742305536074885	1.425322432783056	-0.3370324629239477	0.7861409597777405	1.473658551595571	-0.6193075181835843	0.8305544676120742	1.412765697604215	-0.6513276978359183	0.7271953518668883	1.437429575233351	-0.6654754151583626	0.802311192642176	1.154135449912828	-0.7775112504280178	0.7765087007121076	1.125313696763863	-0.704741698384665	0.7884410671313251	1.379046642122262	-0.6907440428872011	0.7865826294005998	1.229353477772758	-0.7371870098121931	0.8142131699695968	1.29748552262965	-0.7110253743835041	0.8574316702243079	1.089090726384564	-0.7366966794889233	0.973843450125521	0.9865579946291635	-0.7382492985068569	0.9287792386246111	0.9423215297226293	-0.7464599327317036	0.7565774692549632	1.011902448420374	-0.6552706974853668	0.6183654162114962	1.046797534031676	-0.5447547326680471	0.2922921998810794	0.09492217384418944	-0.6015864712481348	0.5348551660304596	0.03891415347393919	-0.5404719338307757	0.4727831085609317	0.01121560388823514	-0.6353656815881735	0.6763330383497982	0.7591782654915971	-0.6608912981314712	0.720466586456021	0.6599238888114302	-0.5902040525651134	0.6278108342922841	0.6057761505836965	-0.6562269591902951	0.5085929835071984	0.3408230063671608	-0.6331020008976969	0.5027849365619733	0.2498539993991851	-0.5784354912228612	0.4495098434156096	0.1943518991743257	-0.6372096708729763	0.5888268373709588	0.5008041617157932	-0.6451618948773438	0.5830726460990172	0.5027447435380314	-0.5330020675513039	0.3845043880613074	0.10862871730315	-0.6370744417885784	0.3865581997774051	0.1075531723953004	-0.5504058130930262	0.6921822322322621	0.921177863082573	-0.590888372769385	0.5871573267181653	0.4998313701501715	-0.5867267521574093	0.792300076880191	1.134391198994337	-0.7355946345754086	0.3687356127453794	0.102503505543311	-0.5880328308590139	0.7857224511575998	1.423463654525853	-0.6574642702245285	
4	2.455	0.8076689510686303	1.423172501069279	-0.4914404106244502	0.6996387726008177	1.501492606917561	-0.5063451362196335	0.7595087699322456	1.474324787889188	-0.3733944715959488	0.793833334812582	1.413869647770115	-0.330118710143496	0.6980847462262256	1.436565776928338	-0.3431288569744864	0.6103295032357707	1.171545193060934	-0.2728631604517061	0.6109249201770514	1.156467971666989	-0.3538828720665038	0.7201198403294377	1.382697332509336	-0.3136899770605054	0.642996736824141	1.246822426043765	-0.3011009691867334	0.7022224290050556	1.297634846278164	-0.3005824979392173	0.6230461079886409	1.08196550982933	-0.2969664353600117	0.6254018990196789	0.9302330254759045	-0.2647363617118828	0.5659342165070838	0.9290758374761194	-0.2874809908034802	0.8052106364129671	1.010713458117364	-0.3871310706121864	0.640032235021933	1.046094680048403	-0.4503630398554593	0.9413081483845362	0.04099512398608215	-0.3992587306120268	1.184733035502771	0.0972306225512761	-0.4566222260539582	1.138286794353067	0.05568049126328306	-0.3579241683014832	0.8107643152663628	0.7835872907022343	-0.3569129376785685	0.9034478161009705	0.7281851474715272	-0.4285806378150792	0.8638778083770743	0.6316456049581279	-0.3579377232129846	0.9442764876659868	0.3522243249874608	-0.3738099938502786	1.002404245076343	0.2808532626076027	-0.4269593700582794	1.002183136419332	0.2054201021015365	-0.3662723674984567	0.8953622952816094	0.523937418460465	-0.366243128491338	0.8861837977685665	0.5181615194530109	-0.4780424917045011	1.013980652953864	0.09851461254164767	-0.363777106305307	1.01582955664219	0.09697257186919539	-0.4504433038975476	0.7241002841093557	0.9202484763300141	-0.4290831681897614	0.8916966700421107	0.5204618925244423	-0.4241901796451316	0.6134838306284622	1.157994490820319	-0.3181786021372209	1.006534804336958	0.08199629603713215	-0.4123873588747458	0.7489799084893034	1.424501649474285	-0.3362133134264734	0.7925580760909662	1.47327515798081	-0.6184529629290594	0.8370516582509089	1.412497054813006	-0.6505798141944867	0.733643182577644	1.437008874303887	-0.6646307727719564	0.8094309685757394	1.153985831068829	-0.7770451056991903	0.783740763174902	1.1250115247653	-0.7042964103867422	0.7950162401601006	1.378758279504762	-0.6900075557795939	0.7935260252688779	1.229115205146356	-0.736624891360955	0.820991414990053	1.29728867546008	-0.7103973525959866	0.8649157950823125	1.089285996219056	-0.7361736778651635	0.9819867007963688	0.9875043683678273	-0.737579904750333	0.9372145949449158	0.9429739255104811	-0.7457994361575921	0.7633328366275759	1.010703352284048	-0.6547800645147899	0.6253627479256056	1.046091140048876	-0.5441185256383803	0.2934101457150515	0.09746207940526197	-0.6016745314003157	0.535270070945585	0.03846673775206704	-0.5405844028407764	0.4727943986039879	0.01138499752247297	-0.6353912751797524	0.6821549831346221	0.7584836229371417	-0.6603978917092103	0.7261326456276223	0.6588743143129779	-0.5901139043334276	0.6330228451238503	0.6052695987962522	-0.6559408721199144	0.5119960584542576	0.3411265326532852	-0.6330412959907997	0.5054354766420999	0.2501098876732648	-0.5785394609670745	0.4514819167098122	0.1952449450842966	-0.6372929656966678	0.593649466914689	0.5004302967738415	-0.6449972003893221	0.5883008547012581	0.5021150449745967	-0.5328131667138457	0.38564659857708	0.1101574210992916	-0.637168180652536	0.3878985308770089	0.1088898680088202	-0.5505070691349651	0.6989144047079722	0.9202423985441596	-0.5900509200028385	0.5922140922184106	0.4992715127621637	-0.5865449327112908	0.7994927371313042	1.134166417245675	-0.7351466217274425	0.3699371438696755	0.1040883637860178	-0.5881005571849369	0.7921982319276303	1.423129056517175	-0.6566744174774641	
